<?xml version="1.0" standalone="no"?>
<!DOCTYPE svg PUBLIC "-//W3C//DTD SVG 20010904//EN"
 "http://www.w3.org/TR/2001/REC-SVG-20010904/DTD/svg10.dtd">
<svg version="1.0" xmlns="http://www.w3.org/2000/svg"
 width="100.000000pt" height="100.000000pt" viewBox="0 0 100.000000 100.000000"
 preserveAspectRatio="xMidYMid meet">

<g transform="translate(0.000000,100.000000) scale(0.100000,-0.100000)"
fill="#000000" stroke="none">
<path d="M854 769 c-10 -17 13 -36 27 -22 12 12 4 33 -11 33 -5 0 -12 -5 -16
-11z"/>
<path d="M114 719 c-10 -17 13 -36 27 -22 12 12 4 33 -11 33 -5 0 -12 -5 -16
-11z"/>
<path d="M290 700 c-6 -12 -14 -51 -17 -88 -5 -62 -4 -70 21 -98 14 -17 39
-37 56 -44 29 -12 30 -15 30 -72 0 -56 -1 -60 -29 -69 -16 -6 -32 -17 -35 -25
-4 -11 11 -14 89 -14 77 0 93 3 89 14 -3 8 -19 20 -35 26 -27 12 -29 16 -29
70 0 57 1 59 38 77 22 11 45 33 57 55 18 34 18 40 5 110 l-15 73 -107 3 c-100
2 -108 1 -118 -18z m221 -24 c5 -17 6 -32 3 -35 -6 -6 -216 -3 -222 3 -2 3 -1
19 3 36 l7 31 101 -3 101 -3 7 -29z m-224 -78 c-3 -8 -6 -5 -6 6 -1 11 2 17 5
13 3 -3 4 -12 1 -19z m240 -20 c-3 -8 -6 -5 -6 6 -1 11 2 17 5 13 3 -3 4 -12
1 -19z m-240 -20 c-3 -8 -6 -5 -6 6 -1 11 2 17 5 13 3 -3 4 -12 1 -19z m135
-153 c-4 -74 -3 -75 25 -87 l28 -12 -32 -4 c-18 -2 -50 -2 -70 0 l-38 4 28 12
c28 12 29 13 25 87 -3 69 -2 75 17 75 19 0 20 -6 17 -75z"/>
<path d="M605 673 c-3 -27 -8 -62 -11 -80 -4 -24 0 -35 17 -47 21 -14 21 -19
15 -124 -6 -92 -5 -110 8 -121 13 -11 19 -11 32 0 13 11 14 29 8 121 -6 102
-5 109 15 125 19 17 20 23 11 83 -5 36 -10 71 -10 78 0 7 -15 12 -39 12 l-40
0 -6 -47z m33 -40 c1 26 7 47 12 47 6 0 11 -21 12 -47 1 -47 1 -47 7 12 l7 60
8 -69 c7 -59 6 -71 -8 -81 -13 -10 -16 -32 -16 -129 0 -71 -4 -116 -10 -116
-6 0 -10 45 -10 116 0 97 -3 119 -16 129 -14 10 -15 22 -8 81 l8 69 7 -60 c6
-59 6 -59 7 -12z"/>
<path d="M234 139 c-10 -17 13 -36 27 -22 12 12 4 33 -11 33 -5 0 -12 -5 -16
-11z"/>
</g>
</svg>
